<?xml version="1.0" encoding="UTF-8"?>
<svg id="Layer_1" data-name="Layer 1" xmlns="http://www.w3.org/2000/svg" viewBox="0 0 1024 1024">
  <defs>
    <style>
      .cls-1 {
        fill: #06b6d4;
        stroke-width: 0px;
      }
    </style>
  </defs>
  <path class="cls-1" d="m780.94,408.4c-17.12,0-34.26-.58-51.34.23-9.63.46-16.27-2.86-23.21-9.19-23.7-21.64-48.08-42.54-72.12-63.8-19.18-16.97-38.26-34.06-57.37-51.1-15.88-14.17-31.79-28.31-47.59-42.56-2.37-2.14-3.89-1.48-5.88.37-13.63,12.71-27.31,25.36-41,38-20.18,18.62-40.41,37.17-60.56,55.82-20.62,19.09-41.18,38.25-62.77,58.32,4.39,0,7.71,0,11.03,0,11.82,0,23.64-.09,35.46.07,2.87.04,4.3-.75,5.67-3.46,18.46-36.49,47.6-59.08,88-66.51,32.93-6.06,64.69-2.37,94.02,14.25,31.35,17.76,51.24,44.27,57.23,80.36,6.43,38.66-3.79,72.88-28.88,102.43-17.97,21.16-37.01,41.42-55.75,61.91-26.6,29.1-53.36,58.05-80.03,87.09-.18.19-.12.61-.25,1.44h217.39v62.67h-370.92c5.72-6.23,10.88-11.97,16.18-17.59,25.9-27.5,51.83-54.96,77.74-82.45,17.81-18.89,35.66-37.72,53.38-56.7,26.57-28.46,53.25-56.82,79.45-85.61,13.49-14.82,21.52-32.12,20.71-52.9-.99-25.67-17.56-46.49-42.69-50.05-20.79-2.95-38.92,1.08-53.26,17.47-7.8,8.92-11.82,19.5-14.44,31.2h-222.14c3.27-3.06,5.73-5.35,8.17-7.66,27.39-26.01,54.67-52.14,82.2-78,39.9-37.48,79.97-74.78,119.99-112.13,20.07-18.73,40.17-37.43,60.26-56.15,6.98-6.51,10.93-6.36,17.95.03,19.68,17.92,39.53,35.66,59.24,53.55,16.63,15.09,33.12,30.34,49.74,45.44,19.46,17.67,39.03,35.22,58.49,52.88,16.26,14.76,32.43,29.62,48.68,44.39,7.63,6.93,15.38,13.73,23.06,20.61,2.3,2.06,4.52,4.2,6.78,6.3-.22.34-.43.68-.65,1.03Z"/>
  <path class="cls-1" d="m767.33,477.5c15.36-11.82,32.56-16.86,51.48-16.03,32.79,1.44,58.82,19.32,67.61,49.34,1.79,6.12,2.74,12.71,2.76,19.09.19,66.77.12,133.54.1,200.31,0,1.46-.19,2.91-.3,4.65h-59.25c-.1-1.68-.27-3.13-.27-4.57-.01-62.44.02-124.88-.08-187.32,0-4.25-.23-8.75-1.62-12.69-2.3-6.52-8.32-9.44-15.69-8.8-6.42.56-12.47,5.7-13.69,11.99-.6,3.08-.86,6.26-.86,9.4-.03,62.27-.05,124.55.09,186.82,0,4.29-.93,5.65-5.5,5.58-18.96-.3-37.92-.12-57.46-.12-.11-2-.29-3.76-.29-5.51,0-63.76.01-127.52,0-191.28,0-8.77-5.57-15.77-13.23-16.83-7.89-1.09-15.31,3.94-17.26,11.84-.39,1.58-.38,3.28-.38,4.93-.04,38.46-.06,76.92-.09,115.38,0,.98-.11,1.96-.19,3.33h-60.53c-.14-1.35-.38-2.62-.38-3.89.03-42.29-.28-84.59.3-126.87.25-18.46,8.44-34.02,22.3-46.24,20.15-17.77,43.88-21.2,69.52-16.91,12.1,2.02,22.71,7.19,32.92,14.42Z"/>
  <path class="cls-1" d="m171.03,526.53c1.88-18.1,9.47-33.43,22.82-45.71,18.14-16.68,39.87-21.21,63.82-18.69,13.9,1.46,26.48,5.74,37.79,13.99,1.06.78,3.69.73,4.78-.06,19.09-13.74,40.46-16.31,63.14-13.74,14.43,1.64,27.5,6.36,38.67,15.6,14.41,11.92,23,27.37,23.5,46.09.69,26.11.18,52.26.05,78.39,0,1.81-.67,4.04-1.84,5.36-12.15,13.67-24.51,27.15-36.72,40.76-6.77,7.55-13.36,15.25-20.05,22.88-.41.46-.96.81-2.33,1.94,0-2.9,0-4.94,0-6.99.04-40.62.08-81.24.09-121.85,0-3.32.21-6.73-.46-9.94-1.92-9.22-9.63-14.21-19.45-13.03-8.42,1.02-14.12,8.14-14.12,17.74-.01,38.62-.02,77.24-.02,115.86,0,17.64.11,35.29-.04,52.93-.02,2.28-.76,5.05-2.19,6.72-5.3,6.18-10.99,12.03-16.64,17.89-1.08,1.12-2.68,2.44-4.05,2.46-14.27.18-28.55.11-43.61.11,0-4.48,0-8.4,0-12.32,0-57.75-.02-115.51-.03-173.26,0-4.31.17-8.64-.19-12.92-.72-8.73-6.29-14.49-14.35-15.26-8.01-.77-14.3,3.49-17.05,11.57-.37,1.09-.6,2.24-.89,3.35-.26.02-.53.03-.79.03-.35,2.05-1.01,4.09-1.01,6.14-.05,61.72-.09,123.44.05,185.16,0,4.32-1.01,5.71-5.52,5.63-15.47-.29-30.95-.37-46.41.03-5.32.14-6.23-1.64-6.21-6.48.15-64.88.11-129.76.07-194.64,0-1.92-.51-3.84-.79-5.75Z"/>
  <path class="cls-1" d="m171.03,526.53c.27,1.92.79,3.84.79,5.75.04,64.88.08,129.76-.07,194.64-.01,4.84.89,6.62,6.21,6.48,15.46-.4,30.95-.32,46.41-.03,4.51.08,5.53-1.31,5.52-5.63-.13-61.72-.1-123.44-.05-185.16,0-2.05.66-4.09,1.01-6.14-.02,58.22-.04,116.44-.01,174.66,0,1.41.57,2.83.87,4.24v18.71c-1.58.32-3.24.66-4.91,1-1.76-.26-3.52-.74-5.28-.74-16.93-.06-33.86-.04-50.78-.05-.17-1.96-.48-3.92-.48-5.89-.03-62.81-.05-125.62,0-188.43,0-4.47.5-8.94.77-13.41Z"/>
  <path class="cls-1" d="m231.71,715.34c-.3-1.41-.87-2.83-.87-4.24-.03-58.22,0-116.44.01-174.66.27,0,.53-.02.79-.03.1.99.29,1.97.29,2.96.02,57.67.02,115.33,0,173,0,.99-.15,1.98-.23,2.97Z"/>
  <path class="cls-1" d="m170.74,734.26c16.93,0,33.86-.01,50.78.05,1.76,0,3.52.48,5.28.74-18,.09-36,.2-54,.23-.69,0-1.37-.67-2.06-1.02Z"/>
</svg>